<mxfile host="app.diagrams.net" agent="Mozilla/5.0 (Windows NT 10.0; Win64; x64) AppleWebKit/537.36 (KHTML, like Gecko) Chrome/129.0.0.0 Safari/537.36" version="24.7.16">
  <diagram name="第 1 页" id="CFDrM-g64H3I6hawnW-P">
    <mxGraphModel dx="1091" dy="599" grid="1" gridSize="10" guides="1" tooltips="1" connect="1" arrows="1" fold="1" page="1" pageScale="1" pageWidth="1169" pageHeight="827" math="0" shadow="0">
      <root>
        <mxCell id="0" />
        <mxCell id="1" parent="0" />
        <mxCell id="8ZRLsKJ2G_qf9zo9Uihr-1" value="" style="endArrow=none;dashed=1;html=1;rounded=0;" edge="1" parent="1">
          <mxGeometry width="50" height="50" relative="1" as="geometry">
            <mxPoint x="80" y="120" as="sourcePoint" />
            <mxPoint x="960" y="120" as="targetPoint" />
          </mxGeometry>
        </mxCell>
        <mxCell id="8ZRLsKJ2G_qf9zo9Uihr-2" value="&lt;font style=&quot;font-size: 20px;&quot;&gt;用户层&lt;/font&gt;" style="text;html=1;align=center;verticalAlign=middle;resizable=0;points=[];autosize=1;strokeColor=none;fillColor=none;" vertex="1" parent="1">
          <mxGeometry x="90" y="40" width="80" height="40" as="geometry" />
        </mxCell>
        <mxCell id="8ZRLsKJ2G_qf9zo9Uihr-4" value="&lt;font style=&quot;font-size: 18px;&quot;&gt;运维人员&lt;/font&gt;" style="shape=umlActor;verticalLabelPosition=bottom;verticalAlign=top;html=1;outlineConnect=0;" vertex="1" parent="1">
          <mxGeometry x="490" y="20" width="30" height="60" as="geometry" />
        </mxCell>
        <mxCell id="8ZRLsKJ2G_qf9zo9Uihr-5" value="" style="endArrow=none;dashed=1;html=1;rounded=0;" edge="1" parent="1">
          <mxGeometry width="50" height="50" relative="1" as="geometry">
            <mxPoint x="70" y="360" as="sourcePoint" />
            <mxPoint x="952.7826723845109" y="360" as="targetPoint" />
          </mxGeometry>
        </mxCell>
        <mxCell id="8ZRLsKJ2G_qf9zo9Uihr-6" value="&lt;font style=&quot;font-size: 20px;&quot;&gt;应用层&lt;/font&gt;" style="text;html=1;align=center;verticalAlign=middle;resizable=0;points=[];autosize=1;strokeColor=none;fillColor=none;" vertex="1" parent="1">
          <mxGeometry x="90" y="230" width="80" height="40" as="geometry" />
        </mxCell>
        <mxCell id="8ZRLsKJ2G_qf9zo9Uihr-7" value="&lt;font style=&quot;font-size: 20px;&quot;&gt;系统层&lt;/font&gt;" style="text;html=1;align=center;verticalAlign=middle;resizable=0;points=[];autosize=1;strokeColor=none;fillColor=none;" vertex="1" parent="1">
          <mxGeometry x="90" y="500" width="80" height="40" as="geometry" />
        </mxCell>
        <mxCell id="8ZRLsKJ2G_qf9zo9Uihr-8" value="" style="endArrow=classic;html=1;rounded=0;entryX=0.5;entryY=0;entryDx=0;entryDy=0;" edge="1" parent="1" source="8ZRLsKJ2G_qf9zo9Uihr-4" target="8ZRLsKJ2G_qf9zo9Uihr-10">
          <mxGeometry width="50" height="50" relative="1" as="geometry">
            <mxPoint x="500" y="250" as="sourcePoint" />
            <mxPoint x="505" y="200" as="targetPoint" />
          </mxGeometry>
        </mxCell>
        <mxCell id="8ZRLsKJ2G_qf9zo9Uihr-9" value="VPN" style="edgeLabel;html=1;align=center;verticalAlign=middle;resizable=0;points=[];fontSize=18;" vertex="1" connectable="0" parent="8ZRLsKJ2G_qf9zo9Uihr-8">
          <mxGeometry x="0.0891" y="1" relative="1" as="geometry">
            <mxPoint as="offset" />
          </mxGeometry>
        </mxCell>
        <mxCell id="8ZRLsKJ2G_qf9zo9Uihr-15" style="edgeStyle=orthogonalEdgeStyle;rounded=0;orthogonalLoop=1;jettySize=auto;html=1;exitX=0.5;exitY=1;exitDx=0;exitDy=0;entryX=0.5;entryY=0;entryDx=0;entryDy=0;" edge="1" parent="1" source="8ZRLsKJ2G_qf9zo9Uihr-10" target="8ZRLsKJ2G_qf9zo9Uihr-11">
          <mxGeometry relative="1" as="geometry" />
        </mxCell>
        <mxCell id="8ZRLsKJ2G_qf9zo9Uihr-16" style="edgeStyle=orthogonalEdgeStyle;rounded=0;orthogonalLoop=1;jettySize=auto;html=1;exitX=0.5;exitY=1;exitDx=0;exitDy=0;entryX=0.5;entryY=0;entryDx=0;entryDy=0;" edge="1" parent="1" source="8ZRLsKJ2G_qf9zo9Uihr-10" target="8ZRLsKJ2G_qf9zo9Uihr-12">
          <mxGeometry relative="1" as="geometry" />
        </mxCell>
        <mxCell id="8ZRLsKJ2G_qf9zo9Uihr-17" style="edgeStyle=orthogonalEdgeStyle;rounded=0;orthogonalLoop=1;jettySize=auto;html=1;exitX=0.5;exitY=1;exitDx=0;exitDy=0;entryX=0.5;entryY=0;entryDx=0;entryDy=0;" edge="1" parent="1" source="8ZRLsKJ2G_qf9zo9Uihr-10" target="8ZRLsKJ2G_qf9zo9Uihr-13">
          <mxGeometry relative="1" as="geometry" />
        </mxCell>
        <mxCell id="8ZRLsKJ2G_qf9zo9Uihr-18" style="edgeStyle=orthogonalEdgeStyle;rounded=0;orthogonalLoop=1;jettySize=auto;html=1;exitX=0.5;exitY=1;exitDx=0;exitDy=0;" edge="1" parent="1" source="8ZRLsKJ2G_qf9zo9Uihr-10" target="8ZRLsKJ2G_qf9zo9Uihr-14">
          <mxGeometry relative="1" as="geometry" />
        </mxCell>
        <mxCell id="8ZRLsKJ2G_qf9zo9Uihr-19" value="运维操作" style="edgeLabel;html=1;align=center;verticalAlign=middle;resizable=0;points=[];fontSize=18;" vertex="1" connectable="0" parent="8ZRLsKJ2G_qf9zo9Uihr-18">
          <mxGeometry x="-0.796" y="-1" relative="1" as="geometry">
            <mxPoint as="offset" />
          </mxGeometry>
        </mxCell>
        <mxCell id="8ZRLsKJ2G_qf9zo9Uihr-10" value="&lt;font style=&quot;font-size: 18px;&quot;&gt;运维平台&lt;/font&gt;" style="rounded=0;whiteSpace=wrap;html=1;" vertex="1" parent="1">
          <mxGeometry x="445" y="220" width="120" height="60" as="geometry" />
        </mxCell>
        <mxCell id="8ZRLsKJ2G_qf9zo9Uihr-11" value="&lt;font style=&quot;font-size: 18px;&quot;&gt;应用服务器&lt;/font&gt;" style="rounded=0;whiteSpace=wrap;html=1;" vertex="1" parent="1">
          <mxGeometry x="220" y="490" width="120" height="60" as="geometry" />
        </mxCell>
        <mxCell id="8ZRLsKJ2G_qf9zo9Uihr-12" value="负载服务器" style="rounded=0;whiteSpace=wrap;html=1;fontSize=18;" vertex="1" parent="1">
          <mxGeometry x="370" y="490" width="120" height="60" as="geometry" />
        </mxCell>
        <mxCell id="8ZRLsKJ2G_qf9zo9Uihr-13" value="数据库服务器" style="rounded=0;whiteSpace=wrap;html=1;fontSize=18;" vertex="1" parent="1">
          <mxGeometry x="520" y="490" width="120" height="60" as="geometry" />
        </mxCell>
        <mxCell id="8ZRLsKJ2G_qf9zo9Uihr-14" value="文件服务器" style="rounded=0;whiteSpace=wrap;html=1;fontSize=18;" vertex="1" parent="1">
          <mxGeometry x="670" y="490" width="120" height="60" as="geometry" />
        </mxCell>
      </root>
    </mxGraphModel>
  </diagram>
</mxfile>
